<?xml version="1.0" encoding="utf-8"?><svg xml:space="preserve" viewBox="0 0 100 100" y="0" x="0" xmlns="http://www.w3.org/2000/svg" id="Layer_1" version="1.1" width="128px" height="128px" xmlns:xlink="http://www.w3.org/1999/xlink" 
style="width:100%;height:100%;background-size:initial;background-repeat-y:initial;background-repeat-x:initial;background-position-y:initial;
background-position-x:initial;background-origin:initial;background-image:initial;background-color:rgb(241, 242, 243,0);background-clip:initial;background-attachment:initial;animation-play-state:paused" ><g class="ldl-scale" style="transform-origin:50% 50%;transform:scale(0.8);animation-play-state:paused" ><path fill="#323232" d="M50 74.07c-.53 0-1.061-.213-1.451-.638L15.388 47.59H9.472c-1.713 0-2.608 2.036-1.451 3.298l40.528 33.877c.39.425.92.638 1.451.638.53 0 1.061-.213 1.451-.638l40.528-33.877c1.157-1.262.262-3.298-1.451-3.298h-5.916L51.451 73.432c-.39.425-.921.638-1.451.638z" id="XMLID_910_" style="fill:rgb(104, 156, 197);animation-play-state:paused" ></path>
<path fill="#cccccb" d="M50 41.077c-.53 0-1.061-.213-1.451-.638L15.388 14.597H9.472c-1.713 0-2.608 2.036-1.451 3.298l40.528 33.877c.39.425.92.638 1.451.638.53 0 1.061-.213 1.451-.638l40.528-33.877c1.157-1.262.262-3.298-1.451-3.298h-5.916L51.451 40.439c-.39.425-.921.638-1.451.638z" id="XMLID_909_" style="fill:rgb(147, 219, 233);animation-play-state:paused" ></path>
<metadata xmlns:d="https://loading.io/stock/" style="animation-play-state:paused" ><d:name style="animation-play-state:paused" >down</d:name>
<d:tags style="animation-play-state:paused" >south,download,bottom,direction,way,dart,chevron,down,arrow</d:tags>
<d:license style="animation-play-state:paused" >by</d:license>
<d:slug style="animation-play-state:paused" >ia99jj</d:slug></metadata></g><!-- generated by https://loading.io/ --></svg>