<?xml version="1.0" encoding="utf-8"?><svg xml:space="preserve" viewBox="0 0 100 100" y="0" x="0" xmlns="http://www.w3.org/2000/svg" id="圖層_1" version="1.1" xmlns:xlink="http://www.w3.org/1999/xlink" style="width:100%;height:100%;background-size:initial;background-repeat-y:initial;background-repeat-x:initial;background-position-y:initial;background-position-x:initial;background-origin:initial;background-color:initial;background-clip:initial;background-attachment:initial;animation-play-state:paused" ><g class="ldl-scale" style="transform-origin:50% 50%;transform:scale(0.8);animation-play-state:paused" ><path fill="#d1d1d1" d="M50 95c-5.278 0-8.545-4.153-9.643-6.607-1.04-2.323-1.824-5.995-1.824-8.54V55.441l-15.95 6.956c-1.019.49-1.946.728-2.832.728-1.593 0-2.993-.792-3.744-2.119-.61-1.075-1.022-2.881.47-5.373L44.953 8.09C46.129 6.127 47.969 5 50 5s3.87 1.127 5.047 3.09l28.478 47.542c1.494 2.493 1.079 4.301.468 5.379-.755 1.331-2.16 2.126-3.759 2.126-.88 0-1.801-.233-2.81-.712L61.467 55.53v24.323c0 2.546-.784 6.216-1.824 8.54C58.545 90.847 55.278 95 50 95z" style="fill:rgba(15, 149, 192, 0.694);animation-play-state:paused" ></path>
<path fill="#454545" d="M78.948 59.076c1.821.881 2.461.182 1.421-1.554L51.89 9.981c-1.04-1.736-2.741-1.736-3.781 0L19.632 57.522c-1.04 1.736-.405 2.426 1.411 1.532l17.743-7.738c1.884-.739 3.425.313 3.425 2.336v26.2c0 2.023.677 5.19 1.503 7.037 0 0 1.984 4.431 6.286 4.431s6.286-4.431 6.286-4.431c.827-1.847 1.503-5.013 1.503-7.037V53.751c0-2.023 1.542-3.075 3.426-2.338l17.733 7.663z" style="fill:rgba(86, 198, 210, 0.584);animation-play-state:paused" ></path>
<metadata xmlns:d="https://loading.io/stock/" style="animation-play-state:paused" ><d:name style="animation-play-state:paused" >arrow up</d:name>
<d:tags style="animation-play-state:paused" >north,top,go,forward,arrow up,map</d:tags>
<d:license style="animation-play-state:paused" >free</d:license>
<d:slug style="animation-play-state:paused" >y5g5gh</d:slug></metadata></g><!-- generated by https://loading.io/ --></svg>